<svg width="25" height="24" viewBox="0 0 25 24" fill="none" xmlns="http://www.w3.org/2000/svg">
<path d="M20.3901 9.55001C20.307 9.3851 20.1799 9.24642 20.0228 9.14934C19.8657 9.05226 19.6848 9.00057 19.5001 9.00001H14.5001V3.00001C14.5108 2.7807 14.4491 2.56394 14.3244 2.38321C14.1997 2.20248 14.019 2.06782 13.8101 2.00001C13.6093 1.93396 13.3928 1.93321 13.1916 1.99789C12.9903 2.06257 12.8148 2.18934 12.6901 2.36001L4.69011 13.36C4.58987 13.5049 4.52968 13.6737 4.51564 13.8493C4.50159 14.0249 4.53418 14.2011 4.61011 14.36C4.68003 14.5418 4.80149 14.6991 4.9596 14.8128C5.1177 14.9265 5.30555 14.9916 5.50011 15H10.5001V21C10.5003 21.2109 10.5671 21.4163 10.691 21.5869C10.8149 21.7576 10.9896 21.8846 11.1901 21.95C11.2906 21.9812 11.3949 21.998 11.5001 22C11.6579 22.0004 11.8135 21.9635 11.9543 21.8922C12.0951 21.821 12.217 21.7174 12.3101 21.59L20.3101 10.59C20.4178 10.4408 20.4823 10.2648 20.4964 10.0813C20.5106 9.89777 20.4738 9.71394 20.3901 9.55001ZM12.5001 17.92V14C12.5001 13.7348 12.3947 13.4804 12.2072 13.2929C12.0197 13.1054 11.7653 13 11.5001 13H7.50011L12.5001 6.08001V10C12.5001 10.2652 12.6055 10.5196 12.793 10.7071C12.9805 10.8947 13.2349 11 13.5001 11H17.5001L12.5001 17.92Z" fill="#5D6368"/>
</svg>
