<svg width="24" height="24" viewBox="0 0 24 24" fill="none" xmlns="http://www.w3.org/2000/svg">
<path d="M18.75 9.705C18.7422 9.6361 18.7271 9.56822 18.705 9.5025V9.435C18.6689 9.35788 18.6208 9.287 18.5625 9.225L14.0625 4.725C14.0005 4.66666 13.9296 4.61856 13.8525 4.5825C13.8301 4.57932 13.8074 4.57932 13.785 4.5825C13.7088 4.53881 13.6247 4.51076 13.5375 4.5H10.5C9.90326 4.5 9.33097 4.73705 8.90901 5.15901C8.48705 5.58097 8.25 6.15326 8.25 6.75V7.5H7.5C6.90326 7.5 6.33097 7.73705 5.90901 8.15901C5.48705 8.58097 5.25 9.15326 5.25 9.75V17.25C5.25 17.8467 5.48705 18.419 5.90901 18.841C6.33097 19.2629 6.90326 19.5 7.5 19.5H13.5C14.0967 19.5 14.669 19.2629 15.091 18.841C15.5129 18.419 15.75 17.8467 15.75 17.25V16.5H16.5C17.0967 16.5 17.669 16.2629 18.091 15.841C18.5129 15.419 18.75 14.8467 18.75 14.25V9.75C18.75 9.75 18.75 9.75 18.75 9.705ZM14.25 7.0575L16.1925 9H15C14.8011 9 14.6103 8.92098 14.4697 8.78033C14.329 8.63968 14.25 8.44891 14.25 8.25V7.0575ZM14.25 17.25C14.25 17.4489 14.171 17.6397 14.0303 17.7803C13.8897 17.921 13.6989 18 13.5 18H7.5C7.30109 18 7.11032 17.921 6.96967 17.7803C6.82902 17.6397 6.75 17.4489 6.75 17.25V9.75C6.75 9.55109 6.82902 9.36032 6.96967 9.21967C7.11032 9.07902 7.30109 9 7.5 9H8.25V14.25C8.25 14.8467 8.48705 15.419 8.90901 15.841C9.33097 16.2629 9.90326 16.5 10.5 16.5H14.25V17.25ZM17.25 14.25C17.25 14.4489 17.171 14.6397 17.0303 14.7803C16.8897 14.921 16.6989 15 16.5 15H10.5C10.3011 15 10.1103 14.921 9.96967 14.7803C9.82902 14.6397 9.75 14.4489 9.75 14.25V6.75C9.75 6.55109 9.82902 6.36032 9.96967 6.21967C10.1103 6.07902 10.3011 6 10.5 6H12.75V8.25C12.75 8.84674 12.9871 9.41903 13.409 9.84099C13.831 10.2629 14.4033 10.5 15 10.5H17.25V14.25Z" fill="#0342D0"/>
</svg>
