<svg width="24" height="24" viewBox="0 0 24 24" fill="none" xmlns="http://www.w3.org/2000/svg">
<path d="M9.2175 12.9675C9.1472 13.0372 9.09141 13.1202 9.05333 13.2116C9.01526 13.303 8.99565 13.401 8.99565 13.5C8.99565 13.599 9.01526 13.697 9.05333 13.7884C9.09141 13.8798 9.1472 13.9628 9.2175 14.0325L11.4675 16.2825C11.5372 16.3528 11.6202 16.4086 11.7116 16.4467C11.803 16.4847 11.901 16.5043 12 16.5043C12.099 16.5043 12.197 16.4847 12.2884 16.4467C12.3798 16.4086 12.4628 16.3528 12.5325 16.2825L14.7825 14.0325C14.9237 13.8913 15.0031 13.6997 15.0031 13.5C15.0031 13.3003 14.9237 13.1087 14.7825 12.9675C14.6413 12.8263 14.4497 12.7469 14.25 12.7469C14.0503 12.7469 13.8587 12.8263 13.7175 12.9675L12.75 13.9425V5.25C12.75 5.05109 12.671 4.86032 12.5303 4.71967C12.3897 4.57902 12.1989 4.5 12 4.5C11.8011 4.5 11.6103 4.57902 11.4697 4.71967C11.329 4.86032 11.25 5.05109 11.25 5.25V13.9425L10.2825 12.9675C10.2128 12.8972 10.1298 12.8414 10.0384 12.8033C9.94704 12.7653 9.84901 12.7457 9.75 12.7457C9.65099 12.7457 9.55296 12.7653 9.46157 12.8033C9.37017 12.8414 9.28722 12.8972 9.2175 12.9675ZM16.5 9.75H15C14.8011 9.75 14.6103 9.82902 14.4697 9.96967C14.329 10.1103 14.25 10.3011 14.25 10.5C14.25 10.6989 14.329 10.8897 14.4697 11.0303C14.6103 11.171 14.8011 11.25 15 11.25H16.5C16.6989 11.25 16.8897 11.329 17.0303 11.4697C17.171 11.6103 17.25 11.8011 17.25 12V17.25C17.25 17.4489 17.171 17.6397 17.0303 17.7803C16.8897 17.921 16.6989 18 16.5 18H7.5C7.30109 18 7.11032 17.921 6.96967 17.7803C6.82902 17.6397 6.75 17.4489 6.75 17.25V12C6.75 11.8011 6.82902 11.6103 6.96967 11.4697C7.11032 11.329 7.30109 11.25 7.5 11.25H9C9.19891 11.25 9.38968 11.171 9.53033 11.0303C9.67098 10.8897 9.75 10.6989 9.75 10.5C9.75 10.3011 9.67098 10.1103 9.53033 9.96967C9.38968 9.82902 9.19891 9.75 9 9.75H7.5C6.90326 9.75 6.33097 9.98705 5.90901 10.409C5.48705 10.831 5.25 11.4033 5.25 12V17.25C5.25 17.8467 5.48705 18.419 5.90901 18.841C6.33097 19.2629 6.90326 19.5 7.5 19.5H16.5C17.0967 19.5 17.669 19.2629 18.091 18.841C18.5129 18.419 18.75 17.8467 18.75 17.25V12C18.75 11.4033 18.5129 10.831 18.091 10.409C17.669 9.98705 17.0967 9.75 16.5 9.75Z" fill="#0342D0"/>
</svg>
