<svg width="24" height="24" viewBox="0 0 24 24" fill="none" xmlns="http://www.w3.org/2000/svg">
<path d="M15 10.8751H9C8.40326 10.8751 7.83097 11.1122 7.40901 11.5341C6.98705 11.9561 6.75 12.5284 6.75 13.1251V16.8751C6.75 17.4719 6.98705 18.0442 7.40901 18.4661C7.83097 18.8881 8.40326 19.1251 9 19.1251H15C15.5967 19.1251 16.169 18.8881 16.591 18.4661C17.0129 18.0442 17.25 17.4719 17.25 16.8751V13.1251C17.25 12.5284 17.0129 11.9561 16.591 11.5341C16.169 11.1122 15.5967 10.8751 15 10.8751ZM14.685 12.3751L12.525 14.5351C12.3848 14.6726 12.1963 14.7495 12 14.7495C11.8037 14.7495 11.6152 14.6726 11.475 14.5351L9.315 12.3751H14.685ZM15.75 16.8751C15.75 17.0741 15.671 17.2648 15.5303 17.4055C15.3897 17.5461 15.1989 17.6251 15 17.6251H9C8.80109 17.6251 8.61032 17.5461 8.46967 17.4055C8.32902 17.2648 8.25 17.0741 8.25 16.8751V13.4326L10.41 15.5851C10.6166 15.7975 10.8639 15.9661 11.137 16.0808C11.4102 16.1955 11.7037 16.2539 12 16.2526C12.5965 16.2521 13.1684 16.0147 13.59 15.5926L15.75 13.4326V16.8751ZM9.75 7.87514H12.4425L12.2175 8.09264C12.1472 8.16236 12.0914 8.24531 12.0533 8.33671C12.0153 8.4281 11.9957 8.52613 11.9957 8.62514C11.9957 8.72415 12.0153 8.82218 12.0533 8.91357C12.0914 9.00497 12.1472 9.08792 12.2175 9.15764C12.2872 9.22794 12.3702 9.28373 12.4616 9.32181C12.553 9.35988 12.651 9.37949 12.75 9.37949C12.849 9.37949 12.947 9.35988 13.0384 9.32181C13.1298 9.28373 13.2128 9.22794 13.2825 9.15764L14.7825 7.65764C14.8508 7.58631 14.9043 7.5022 14.94 7.41014C15.015 7.22754 15.015 7.02273 14.94 6.84014C14.9043 6.74808 14.8508 6.66397 14.7825 6.59264L13.2825 5.09264C13.1413 4.95141 12.9497 4.87207 12.75 4.87207C12.5503 4.87207 12.3587 4.95141 12.2175 5.09264C12.0763 5.23387 11.9969 5.42541 11.9969 5.62514C11.9969 5.82487 12.0763 6.01641 12.2175 6.15764L12.4425 6.37514H9.75C9.55109 6.37514 9.36032 6.45416 9.21967 6.59481C9.07902 6.73546 9 6.92623 9 7.12514C9 7.32405 9.07902 7.51482 9.21967 7.65547C9.36032 7.79612 9.55109 7.87514 9.75 7.87514V7.87514Z" fill="#0342D0"/>
</svg>
