<svg width="175" height="48" viewBox="0 0 175 48" fill="none" xmlns="http://www.w3.org/2000/svg">
<g id="Group">
<path id="Vector" d="M44.9149 27.0424V34.1037C44.9149 34.4735 44.7225 34.8077 44.4019 34.9926L23.192 47.2166C22.8714 47.4015 22.4795 47.4015 22.1661 47.2166L15.7824 43.5402C15.4618 43.3553 15.2694 43.0211 15.2694 42.6513V35.2984C15.2694 34.9429 15.0842 34.6228 14.8135 34.438L14.7209 34.3811L8.36572 30.7189C8.04511 30.534 7.85275 30.1997 7.85275 29.83V22.4771C7.85275 22.1215 7.66751 21.8015 7.39677 21.6166L7.30415 21.5597L0.949007 17.8975C0.6284 17.7126 0.436035 17.3784 0.436035 17.0086V9.94018C0.436035 9.54907 0.863512 9.30019 1.20549 9.4993L7.33264 13.0335C7.65325 13.2184 8.0451 13.2184 8.35859 13.0335L29.312 0.958851C29.654 0.75974 30.0815 1.00863 30.0815 1.39974V8.46107C30.0815 8.83085 29.8891 9.16507 29.5685 9.34996L8.64358 21.4104L8.5937 21.4388C8.45833 21.5313 8.36572 21.6877 8.36572 21.8726C8.36572 22.0575 8.45833 22.2068 8.5937 22.3064C8.60795 22.3135 8.6222 22.3277 8.63645 22.3348L14.7422 25.8549C15.0628 26.0397 15.4547 26.0397 15.7682 25.8549L36.7216 13.7802C37.0636 13.5811 37.4911 13.83 37.4911 14.2211V21.2824C37.4911 21.6522 37.2987 21.9864 36.9781 22.1713L16.0603 34.2246L16.0033 34.2602C15.8679 34.3526 15.7753 34.5091 15.7753 34.694C15.7753 34.8788 15.8679 35.0282 16.0033 35.1277C16.0247 35.1348 16.0389 35.1491 16.0603 35.1562L22.1589 38.6691C22.4796 38.854 22.8714 38.854 23.1849 38.6691L44.1383 26.5944C44.4803 26.3953 44.9078 26.6442 44.9078 27.0353L44.9149 27.0424Z" fill="url(#paint0_linear_95_581)"/>
<path id="Vector_2" d="M97.9576 33.9902L91.46 16.9235H84.9125L94.78 40.9449H101.135L111.003 16.9235H104.455L97.9576 33.9902ZM66.4811 13.3182H81.2148V7.31641H59.8909V40.9449H81.4072V34.9431H66.4811V26.8222H81.4072V20.9626H66.4811V13.3253V13.3182ZM144.446 7.8213L139.359 10.7511C139.116 10.8933 138.967 11.1493 138.967 11.4337V40.9449H145.322V8.32619C145.322 7.87819 144.837 7.60086 144.453 7.8213H144.446ZM129.17 17.7413C127.553 16.8097 125.523 16.3475 123.079 16.3475C121.056 16.3475 119.346 16.6604 117.949 17.2862C116.553 17.912 115.42 18.7084 114.558 19.6897C113.689 20.664 113.033 21.6666 112.584 22.6906L118.17 24.6106C118.747 23.6791 119.453 22.9964 120.286 22.5413C121.12 22.0933 122.053 21.8657 123.079 21.8657C124.205 21.8657 125.095 22.1431 125.751 22.7049C126.406 23.2666 126.891 24.056 127.197 25.08C127.318 25.4924 127.418 25.9404 127.489 26.424H121.832C118.719 26.424 116.303 27.0711 114.586 28.3724C112.869 29.6666 112.014 31.6009 112.014 34.1609C112.014 36.5004 112.805 38.3066 114.394 39.5866C115.983 40.8666 118.22 41.5066 121.105 41.5066C123.991 41.5066 126.1 40.5964 127.339 38.7689C127.482 38.5626 127.61 38.3493 127.731 38.1217L127.845 40.9306H133.766L133.908 27.6257C133.937 25.3217 133.566 23.3235 132.776 21.6453C131.992 19.9671 130.788 18.6586 129.163 17.7271L129.17 17.7413ZM126.933 33.5706C126.449 34.3528 125.801 34.9929 124.981 35.4906C124.162 35.9884 123.221 36.2373 122.167 36.2373C121.013 36.2373 120.115 36.0382 119.474 35.64C118.833 35.2417 118.512 34.6871 118.512 33.9831C118.512 33.0871 118.911 32.3902 119.716 31.8924C120.521 31.3946 121.96 31.1457 124.048 31.1457H127.66C127.66 31.9777 127.418 32.7884 126.94 33.5706H126.933ZM172.994 22.3991C172.666 21.816 172.296 21.2684 171.89 20.7635C170.978 19.6329 169.873 18.6942 168.562 17.9546C166.667 16.8809 164.487 16.3404 162.015 16.3404C159.543 16.3404 157.412 16.8809 155.517 17.9546C153.622 19.0284 152.147 20.5075 151.086 22.3991C150.722 23.0462 150.423 23.7289 150.188 24.44C149.725 25.8124 149.497 27.3057 149.497 28.9342C149.497 30.9182 149.846 32.7102 150.544 34.3244C150.715 34.7155 150.901 35.0995 151.114 35.4693C152.19 37.3608 153.679 38.84 155.589 39.9137C157.498 40.9875 159.671 41.5209 162.108 41.5209C164.544 41.5209 166.703 40.9804 168.577 39.9137C170.458 38.84 171.925 37.3608 172.98 35.4693C174.041 33.5777 174.568 31.4017 174.568 28.9342V28.8915C174.568 26.4382 174.034 24.2764 172.98 22.3991H172.994ZM167.344 32.4186C167.166 32.7813 166.959 33.1155 166.731 33.4213C166.318 33.9689 165.827 34.424 165.249 34.7937C164.558 35.2346 163.782 35.512 162.927 35.6115C162.67 35.64 162.4 35.6613 162.122 35.6613C160.932 35.6613 159.87 35.3769 158.944 34.7937C158.011 34.2177 157.291 33.4284 156.778 32.4186C156.265 31.4089 156.009 30.2497 156.009 28.9342C156.009 28.5573 156.03 28.1875 156.073 27.8248C156.18 26.9573 156.415 26.1609 156.778 25.4497C157.291 24.44 158.004 23.6506 158.923 23.0746C159.842 22.4986 160.875 22.2071 162.029 22.2071C163.183 22.2071 164.266 22.4915 165.178 23.0746C165.591 23.3377 165.969 23.6435 166.297 23.992C166.703 24.4115 167.045 24.9022 167.323 25.4497C167.836 26.4595 168.092 27.6186 168.092 28.9342C168.092 30.2497 167.843 31.4089 167.344 32.4186Z" fill="url(#paint1_linear_95_581)"/>
</g>
<defs>
<linearGradient id="paint0_linear_95_581" x1="22.6834" y1="47.3612" x2="22.6834" y2="0.89528" gradientUnits="userSpaceOnUse">
<stop stop-color="#0251FF"/>
<stop offset="1" stop-color="#3070FF"/>
</linearGradient>
<linearGradient id="paint1_linear_95_581" x1="59.8837" y1="24.4186" x2="174.583" y2="24.4186" gradientUnits="userSpaceOnUse">
<stop stop-color="#171719"/>
<stop offset="1" stop-color="#302F30"/>
</linearGradient>
</defs>
</svg>
