<svg width="180" height="40" viewBox="0 0 180 40" fill="none" xmlns="http://www.w3.org/2000/svg">
<path d="M72.8681 21.268V24.2102C72.8681 24.3643 72.7881 24.5035 72.6548 24.5806L63.8341 29.6739C63.7007 29.751 63.5378 29.751 63.4074 29.6739L60.7526 28.1421C60.6192 28.065 60.5392 27.9258 60.5392 27.7717V24.708C60.5392 24.5598 60.4622 24.4265 60.3496 24.3495L60.3111 24.3258L57.6681 22.7998C57.5348 22.7228 57.4548 22.5836 57.4548 22.4295V19.3658C57.4548 19.2176 57.3778 19.0843 57.2652 19.0073L57.2267 18.9836L54.5837 17.4576C54.4504 17.3806 54.3704 17.2413 54.3704 17.0873V14.1421C54.3704 13.9791 54.5481 13.8754 54.6904 13.9584L57.2385 15.431C57.3718 15.508 57.5348 15.508 57.6652 15.431L66.3792 10.3998C66.5215 10.3169 66.6993 10.4206 66.6993 10.5835V13.5258C66.6993 13.6798 66.6193 13.8191 66.4859 13.8961L57.7837 18.9213L57.763 18.9332C57.7067 18.9717 57.6681 19.0369 57.6681 19.1139C57.6681 19.191 57.7067 19.2532 57.763 19.2947C57.7689 19.2976 57.7748 19.3035 57.7807 19.3065L60.32 20.7732C60.4533 20.8502 60.6163 20.8502 60.7467 20.7732L69.4607 15.7421C69.603 15.6591 69.7807 15.7628 69.7807 15.9258V18.868C69.7807 19.0221 69.7007 19.1613 69.5674 19.2384L60.8681 24.2606L60.8444 24.2754C60.7881 24.3139 60.7496 24.3791 60.7496 24.4561C60.7496 24.5332 60.7881 24.5954 60.8444 24.6369C60.8533 24.6398 60.8592 24.6458 60.8681 24.6487L63.4044 26.1124C63.5378 26.1895 63.7007 26.1895 63.8311 26.1124L72.5452 21.0813C72.6874 20.9984 72.8652 21.1021 72.8652 21.265L72.8681 21.268Z" fill="url(#paint0_linear_150_914)"/>
<path d="M94.9273 24.1629L92.2251 17.0518H89.5021L93.6058 27.0607H96.2488L100.352 17.0518H97.6295L94.9273 24.1629ZM81.8369 15.5496H87.9643V13.0488H79.0962V27.0607H88.0443V24.5599H81.8369V21.1762H88.0443V18.7348H81.8369V15.5525V15.5496ZM114.261 13.2592L112.145 14.4799C112.044 14.5392 111.982 14.6459 111.982 14.7644V27.0607H114.625V13.4696C114.625 13.2829 114.424 13.1673 114.264 13.2592H114.261ZM107.908 17.3925C107.235 17.0044 106.391 16.8118 105.375 16.8118C104.533 16.8118 103.822 16.9422 103.241 17.2029C102.661 17.4636 102.19 17.7955 101.831 18.2044C101.47 18.6103 101.197 19.0281 101.01 19.4548L103.333 20.2548C103.573 19.8666 103.867 19.5822 104.213 19.3925C104.56 19.2059 104.948 19.1111 105.375 19.1111C105.843 19.1111 106.213 19.2266 106.486 19.4607C106.758 19.6948 106.96 20.0236 107.087 20.4503C107.138 20.6222 107.179 20.8088 107.209 21.0103H104.856C103.561 21.0103 102.557 21.2799 101.843 21.8222C101.129 22.3614 100.773 23.1673 100.773 24.234C100.773 25.2088 101.102 25.9614 101.763 26.4948C102.424 27.0281 103.354 27.2948 104.554 27.2948C105.754 27.2948 106.631 26.9155 107.147 26.154C107.206 26.0681 107.259 25.9792 107.31 25.8844L107.357 27.0548H109.819L109.878 21.511C109.89 20.551 109.736 19.7185 109.407 19.0192C109.081 18.3199 108.581 17.7748 107.905 17.3866L107.908 17.3925ZM106.978 23.9881C106.776 24.314 106.507 24.5807 106.166 24.7881C105.825 24.9955 105.434 25.0992 104.995 25.0992C104.515 25.0992 104.142 25.0162 103.875 24.8503C103.609 24.6844 103.475 24.4533 103.475 24.1599C103.475 23.7866 103.641 23.4962 103.976 23.2888C104.311 23.0814 104.91 22.9777 105.778 22.9777H107.28C107.28 23.3244 107.179 23.6622 106.981 23.9881H106.978ZM126.133 19.3333C125.997 19.0903 125.843 18.8622 125.674 18.6518C125.295 18.1807 124.835 17.7896 124.29 17.4814C123.502 17.034 122.595 16.8088 121.567 16.8088C120.539 16.8088 119.653 17.034 118.865 17.4814C118.077 17.9288 117.464 18.5451 117.022 19.3333C116.871 19.6029 116.747 19.8873 116.649 20.1836C116.456 20.7555 116.361 21.3777 116.361 22.0562C116.361 22.8829 116.507 23.6296 116.797 24.3022C116.868 24.4651 116.945 24.6251 117.034 24.7792C117.481 25.5673 118.101 26.1836 118.895 26.631C119.689 27.0785 120.592 27.3007 121.606 27.3007C122.619 27.3007 123.517 27.0755 124.296 26.631C125.078 26.1836 125.689 25.5673 126.127 24.7792C126.569 23.991 126.788 23.0844 126.788 22.0562V22.0385C126.788 21.0162 126.566 20.1155 126.127 19.3333H126.133ZM123.784 23.5081C123.71 23.6592 123.624 23.7985 123.529 23.9259C123.357 24.154 123.152 24.3436 122.912 24.4977C122.625 24.6814 122.302 24.797 121.947 24.8385C121.84 24.8503 121.727 24.8592 121.612 24.8592C121.117 24.8592 120.675 24.7407 120.29 24.4977C119.902 24.2577 119.603 23.9288 119.39 23.5081C119.176 23.0873 119.07 22.6044 119.07 22.0562C119.07 21.8992 119.078 21.7451 119.096 21.594C119.141 21.2325 119.238 20.9007 119.39 20.6044C119.603 20.1836 119.899 19.8548 120.281 19.6148C120.664 19.3748 121.093 19.2533 121.573 19.2533C122.053 19.2533 122.504 19.3718 122.883 19.6148C123.055 19.7244 123.212 19.8518 123.348 19.997C123.517 20.1718 123.659 20.3762 123.775 20.6044C123.988 21.0251 124.095 21.5081 124.095 22.0562C124.095 22.6044 123.991 23.0873 123.784 23.5081Z" fill="url(#paint1_linear_150_914)"/>
<defs>
<linearGradient id="paint0_linear_150_914" x1="63.6225" y1="29.7342" x2="63.6225" y2="10.3734" gradientUnits="userSpaceOnUse">
<stop stop-color="#0251FF"/>
<stop offset="1" stop-color="#3070FF"/>
</linearGradient>
<linearGradient id="paint1_linear_150_914" x1="79.0932" y1="20.1748" x2="126.794" y2="20.1748" gradientUnits="userSpaceOnUse">
<stop stop-color="#171719"/>
<stop offset="1" stop-color="#302F30"/>
</linearGradient>
</defs>
</svg>
