<svg width="40" height="40" viewBox="0 0 40 40" fill="none" xmlns="http://www.w3.org/2000/svg">
<path d="M33 21.197V25.3C33 25.5149 32.8876 25.7091 32.7001 25.8165L20.3019 32.9194C20.1145 33.0269 19.8855 33.0269 19.7022 32.9194L15.9707 30.7832C15.7833 30.6758 15.6708 30.4815 15.6708 30.2667V25.9942C15.6708 25.7876 15.5625 25.6017 15.4043 25.4942L15.3502 25.4612L11.6353 23.3332C11.4479 23.2258 11.3354 23.0316 11.3354 22.8167V18.5442C11.3354 18.3376 11.2271 18.1517 11.0689 18.0442L11.0147 18.0112L7.29986 15.8832C7.11245 15.7758 7 15.5816 7 15.3667V11.2595C7 11.0322 7.24988 10.8876 7.44978 11.0033L11.0314 13.0569C11.2188 13.1643 11.4479 13.1643 11.6311 13.0569L23.8794 6.04078C24.0793 5.92508 24.3292 6.0697 24.3292 6.29696V10.4C24.3292 10.6149 24.2167 10.8091 24.0293 10.9165L11.7977 17.9244L11.7685 17.9409C11.6894 17.9946 11.6353 18.0856 11.6353 18.193C11.6353 18.3004 11.6894 18.3872 11.7685 18.445C11.7769 18.4492 11.7852 18.4574 11.7935 18.4616L15.3626 20.5069C15.5501 20.6143 15.7791 20.6143 15.9624 20.5069L28.2106 13.4908C28.4105 13.3751 28.6604 13.5197 28.6604 13.747V17.85C28.6604 18.0649 28.548 18.2591 28.3606 18.3665L16.1331 25.3703L16.0998 25.3909C16.0207 25.4446 15.9665 25.5355 15.9665 25.643C15.9665 25.7504 16.0207 25.8372 16.0998 25.895C16.1123 25.8992 16.1206 25.9074 16.1331 25.9116L19.6981 27.9528C19.8855 28.0602 20.1145 28.0602 20.2978 27.9528L32.5461 20.9366C32.746 20.8209 32.9958 20.9656 32.9958 21.1928L33 21.197Z" fill="url(#paint0_linear_172_1070)"/>
<defs>
<linearGradient id="paint0_linear_172_1070" x1="20.0046" y1="33.0034" x2="20.0046" y2="6.00384" gradientUnits="userSpaceOnUse">
<stop stop-color="#0251FF"/>
<stop offset="1" stop-color="#3070FF"/>
</linearGradient>
</defs>
</svg>
