<svg width="100" height="100" viewBox="0 0 100 100" fill="none" xmlns="http://www.w3.org/2000/svg">
<path d="M80.1109 54.46V64.0359C80.1109 64.5292 79.8428 64.9902 79.4139 65.2369L50.6971 81.815C50.2681 82.0617 49.732 82.0617 49.303 81.815L40.6601 76.8287C40.2312 76.5821 39.9631 76.121 39.9631 75.6277V65.6551C39.9631 65.1726 39.7164 64.7436 39.3411 64.4863L39.2232 64.4112L30.6231 59.4463C30.1942 59.1997 29.9261 58.7386 29.9261 58.2453V48.2727C29.9261 47.7902 29.6795 47.3612 29.3042 47.1039L29.1862 47.0288L20.5862 42.064C20.1573 41.8173 19.8892 41.3562 19.8892 40.8629V31.2764C19.8892 30.7402 20.4682 30.4078 20.9293 30.6759L29.2291 35.4692C29.658 35.7158 30.1942 35.7158 30.6231 35.4692L58.9861 19.0947C59.4472 18.8267 60.0263 19.1591 60.0263 19.6953V29.2711C60.0263 29.7644 59.7582 30.2255 59.3293 30.4721L30.9984 46.8251L30.9341 46.868C30.7411 46.9966 30.6231 47.2111 30.6231 47.447C30.6231 47.6829 30.7411 47.8974 30.9341 48.0261C30.9556 48.0261 30.977 48.0475 30.9984 48.069L39.2661 52.8408C39.695 53.0874 40.2312 53.0874 40.6601 52.8408L69.0231 36.4664C69.4842 36.1983 70.0632 36.5308 70.0632 37.0669V46.6428C70.0632 47.136 69.7952 47.5971 69.3662 47.8438L41.0461 64.1967L40.9711 64.2396C40.778 64.3683 40.6601 64.5828 40.6601 64.8187C40.6601 65.0546 40.7888 65.2691 40.9711 65.3977C40.9925 65.4085 41.0247 65.4299 41.0461 65.4406L49.303 70.2125C49.732 70.4591 50.2681 70.4591 50.6971 70.2125L79.06 53.8381C79.5211 53.57 80.1002 53.9024 80.1002 54.4386L80.1109 54.46Z" fill="#737A80"/>
</svg>
