<svg width="180" height="40" viewBox="0 0 180 40" fill="none" xmlns="http://www.w3.org/2000/svg">
<g clip-path="url(#clip0_150_922)">
<path d="M76 39.647C76 39.5552 76.0489 39.5059 76.1398 39.5059C76.2306 39.5059 76.2795 39.5552 76.2795 39.647C76.2795 39.7387 76.2306 39.788 76.1398 39.788C76.0489 39.788 76 39.7387 76 39.647Z" fill="#3F89BE"/>
<path d="M83.1975 36.818C83.1975 36.5499 83.3652 36.3312 83.5679 36.3312C83.6378 36.3312 83.6867 36.2607 83.7006 36.1407C83.7146 35.9714 83.7565 35.9362 83.9592 35.922L84.1898 35.9009L84.05 36.0984C83.9732 36.2042 83.7496 36.4723 83.5539 36.6839L83.2045 37.072L83.1975 36.818Z" fill="#3F89BE"/>
<path d="M76 29.7705C76 29.6788 76.0489 29.6294 76.1398 29.6294C76.2306 29.6294 76.2795 29.6788 76.2795 29.7705C76.2795 29.8622 76.2306 29.9116 76.1398 29.9116C76.0489 29.9116 76 29.8622 76 29.7705Z" fill="#3F89BE"/>
<path d="M87.1668 29.2274C87.0969 29.2133 87.041 29.1498 87.041 29.0934C87.041 29.0087 87.3275 28.9946 88.8229 28.9946C90.2904 28.9946 90.6049 29.0087 90.6049 29.0934C90.6049 29.1428 90.535 29.2063 90.4511 29.2345C90.2694 29.2839 87.3485 29.2768 87.1668 29.2274Z" fill="#3F89BE"/>
<path d="M76 22.3137C76 14.0456 76.0489 12.9804 76.5381 10.6171C76.8735 8.97331 77.6212 7.01917 78.3899 5.7846C80.0251 3.15321 82.7084 1.26255 85.9229 0.47243C89.5986 -0.430568 93.7145 0.0491499 97.1176 1.79165C101.164 3.85162 103.966 7.65409 104.713 12.0985C104.825 12.7405 104.944 14.3066 104.895 14.3913C104.867 14.4407 103.232 14.4618 99.8639 14.4618H94.8745L94.8325 14.2008C94.6788 13.2343 94.4692 12.6982 94.001 12.028C93.1834 10.8781 91.9395 10.229 90.5559 10.229C89.319 10.229 88.3617 10.6029 87.4952 11.4354C86.9292 11.9857 86.5518 12.5783 86.2863 13.3684L86.0976 13.9327L86.0766 21.573L86.0557 29.2061H81.0313H76V22.3137Z" fill="#3F89BE"/>
<path d="M86.4819 29.0649C86.4819 28.9732 86.5308 28.9238 86.6217 28.9238C86.7125 28.9238 86.7615 28.9732 86.7615 29.0649C86.7615 29.1566 86.7125 29.206 86.6217 29.206C86.5308 29.206 86.4819 29.1566 86.4819 29.0649Z" fill="#3F89BE"/>
<path d="M101.227 24.7548C101.227 24.4514 101.352 24.3174 101.618 24.3527L101.8 24.3738L101.52 24.6913L101.234 25.0088L101.227 24.7548Z" fill="#3F89BE"/>
<path d="M101.869 23.9434C101.89 23.7035 101.911 23.6683 102.086 23.6471C102.254 23.6259 102.275 23.5907 102.275 23.379C102.275 23.1674 102.296 23.1392 102.449 23.1392C102.547 23.1392 102.624 23.1674 102.624 23.1956C102.624 23.2732 102.023 24.0986 101.925 24.1621C101.869 24.1974 101.855 24.1268 101.869 23.9434Z" fill="#3F89BE"/>
<path d="M86.4819 20.2537C86.4819 19.6117 86.5099 19.1109 86.5518 19.0826C86.6566 19.0192 86.9711 19.125 86.9711 19.2308C86.9711 19.2872 86.9222 19.3296 86.8663 19.3296C86.7754 19.3296 86.7615 19.4918 86.7615 20.3525C86.7615 21.326 86.7545 21.3754 86.6217 21.3754C86.4889 21.3754 86.4819 21.326 86.4819 20.2537Z" fill="#3F89BE"/>
<path d="M90.3953 19.2308C90.3953 19.1391 90.5909 19.0474 90.8006 19.0474C90.8425 19.0474 90.8844 19.1109 90.8844 19.1885C90.8844 19.3013 90.8355 19.3296 90.6398 19.3296C90.4791 19.3296 90.3953 19.2943 90.3953 19.2308Z" fill="#3F89BE"/>
<path d="M91.4434 19.0194C91.4434 18.9276 91.639 18.8359 91.8487 18.8359C91.8906 18.8359 91.9325 18.8994 91.9325 18.977C91.9325 19.0899 91.8836 19.1181 91.6879 19.1181C91.5272 19.1181 91.4434 19.0829 91.4434 19.0194Z" fill="#3F89BE"/>
<path d="M92.9109 18.3628C92.9109 18.3346 93.0437 18.2147 93.1974 18.1018L93.4769 17.9043L93.4559 18.1371C93.435 18.3558 93.414 18.377 93.1764 18.3981C93.0297 18.4122 92.9109 18.3981 92.9109 18.3628Z" fill="#3F89BE"/>
<path d="M94.7697 15.3651C94.8256 14.8289 94.8326 14.8148 95.0143 14.8642C95.1191 14.8924 95.147 14.9418 95.1191 15.0547C95.0911 15.1323 95.0562 15.3369 95.0352 15.5062C95.0003 15.739 94.9584 15.8025 94.8535 15.8025C94.7347 15.8025 94.7278 15.7672 94.7697 15.3651Z" fill="#3F89BE"/>
<path d="M76.0351 39.7035C76.0141 39.6541 76.0071 37.3754 76.0141 34.6382L76.0351 29.6647L81.0454 29.6435L86.0628 29.6294V30.1726C86.0628 31.7387 85.5037 33.7493 84.6792 35.1603C84.2669 35.8587 83.2187 37.1003 82.6317 37.573C81.1433 38.7793 79.4731 39.4566 77.3278 39.7176C76.5242 39.8163 76.07 39.8093 76.0351 39.7035Z" fill="#333333"/>
<path d="M86.5379 29.1639C86.4681 29.1004 86.4681 22.7583 86.5309 20.656L86.5729 19.1181H88.5714C90.2625 19.1181 90.6678 19.0969 91.2199 18.984C92.0235 18.8147 92.9529 18.3703 93.4141 17.9329C94.1059 17.2768 94.6859 16.1621 94.8326 15.1886L94.8816 14.8853H99.9129H104.951L104.902 15.7459C104.783 17.9681 104.294 19.9646 103.428 21.7636C102.757 23.1533 102.044 24.148 100.842 25.3685C98.8856 27.3438 96.4958 28.4937 93.1905 29.0369C92.6105 29.1286 91.8418 29.1639 89.5218 29.1851C87.9076 29.2062 86.5659 29.1921 86.5379 29.1639Z" fill="#333333"/>
</g>
<defs>
<clipPath id="clip0_150_922">
<rect width="29" height="40" fill="white" transform="translate(76)"/>
</clipPath>
</defs>
</svg>
