<svg width="180" height="40" viewBox="0 0 180 40" fill="none" xmlns="http://www.w3.org/2000/svg">
<g clip-path="url(#clip0_150_943)">
<path d="M54.1415 24.9915V17.1556C54.1415 16.0229 53.8048 15.1253 53.1297 14.4632C52.4543 13.8009 51.5342 13.4707 50.3697 13.4707C49.9037 13.4707 49.4844 13.5305 49.1116 13.6502C48.7388 13.77 48.4047 13.9256 48.1095 14.1172C47.8143 14.3088 47.5502 14.5285 47.3171 14.776C47.0833 15.0244 46.8728 15.2768 46.6857 15.5332C46.679 15.5424 46.6679 15.5473 46.6565 15.546C46.6452 15.5447 46.6353 15.5375 46.6309 15.527C46.3518 14.8737 45.914 14.3677 45.3172 14.0092C44.7191 13.6499 44.0006 13.4707 43.1618 13.4707C42.339 13.4707 41.6597 13.6377 41.1242 13.9727C40.5872 14.3087 40.1398 14.6925 39.7818 15.1244C39.7732 15.1348 39.7592 15.1386 39.7466 15.1341C39.734 15.1295 39.7256 15.1176 39.7256 15.1043V13.7604H36.3142V24.9915H39.7256V18.8443C39.7415 18.0469 39.9367 17.4371 40.3088 17.014C40.683 16.5884 41.1487 16.3757 41.7061 16.3757C42.2637 16.3757 42.7055 16.5484 43.0321 16.8924C43.358 17.2355 43.5222 17.7251 43.5222 18.3623V24.9915H46.9335V18.9656C46.9335 18.1197 47.1249 17.4775 47.5048 17.0383C47.8869 16.5964 48.3568 16.3757 48.914 16.3757C49.4716 16.3757 49.9135 16.5484 50.2401 16.8924C50.5659 17.2355 50.7301 17.7251 50.7301 18.3623V24.9915H54.1415Z" fill="#2C2C2C"/>
<path d="M62.6573 13.7604V14.6698C62.6573 14.6824 62.6499 14.6938 62.6384 14.6989C62.6269 14.704 62.6135 14.7018 62.6042 14.6933C62.1999 14.3257 61.7529 14.038 61.2631 13.8303C60.7737 13.6226 60.2104 13.519 59.5733 13.519C58.8738 13.519 58.2248 13.6588 57.6263 13.9384C57.0278 14.218 56.5109 14.6135 56.0756 15.1249C55.6398 15.6369 55.2975 16.2529 55.0485 16.9729C54.7991 17.6938 54.6746 18.4868 54.6746 19.3518C54.6746 20.3133 54.7991 21.1627 55.0485 21.8998C55.2975 22.6356 55.6397 23.2515 56.0753 23.7473C56.5104 24.2425 57.027 24.6178 57.6253 24.8734C58.2241 25.1291 58.8735 25.2569 59.5733 25.2569C60.2407 25.2569 60.8112 25.1377 61.2847 24.8983C61.7591 24.6586 62.1984 24.3308 62.6028 23.915C62.6118 23.9058 62.6255 23.9029 62.6375 23.9078C62.6494 23.9127 62.6573 23.9242 62.6573 23.9372V24.9915H66.0686V13.7604H62.6573ZM60.3951 16.4036C61.7473 16.4036 62.8451 17.7426 62.8451 19.3917C62.8451 21.0409 61.7473 22.3798 60.3951 22.3798C59.0429 22.3798 57.945 21.0409 57.945 19.3917C57.945 17.7426 59.0429 16.4036 60.3951 16.4036Z" fill="#2C2C2C"/>
<path d="M77.9019 24.9915V17.3487C77.9019 16.7897 77.8087 16.2706 77.6223 15.7915C77.4361 15.313 77.1724 14.9023 76.8311 14.5594C76.4897 14.2165 76.0785 13.9495 75.5974 13.7581C75.1157 13.5664 74.5718 13.4707 73.9657 13.4707C73.1117 13.4707 72.4207 13.6335 71.8929 13.9607C71.3636 14.2887 70.9199 14.6607 70.5618 15.0767C70.5532 15.0867 70.5392 15.0903 70.5268 15.0857C70.5143 15.0811 70.5061 15.0692 70.5061 15.056V13.7604H67.0947V24.9915H70.5061V18.845V18.8437C70.5378 18.0462 70.7527 17.4364 71.1486 17.0132C71.5461 16.5883 72.039 16.3757 72.6274 16.3757C73.2006 16.3757 73.6541 16.5484 73.9884 16.8921C74.3223 17.2352 74.4905 17.725 74.4905 18.3623V24.9915H77.9019Z" fill="#2C2C2C"/>
<path d="M86.4647 13.7604V14.6698C86.4647 14.6824 86.4573 14.6938 86.4458 14.6989C86.4343 14.704 86.4209 14.7018 86.4116 14.6933C86.0073 14.3257 85.5603 14.038 85.0705 13.8303C84.5811 13.6226 84.0177 13.519 83.3807 13.519C82.6812 13.519 82.0321 13.6588 81.4337 13.9384C80.8352 14.218 80.3183 14.6135 79.8831 15.1249C79.4472 15.6369 79.1049 16.2529 78.8558 16.9729C78.6065 17.6938 78.4819 18.4868 78.4819 19.3518C78.4819 20.3133 78.6065 21.1627 78.8559 21.8998C79.1049 22.6356 79.447 23.2515 79.8827 23.7473C80.3179 24.2425 80.8345 24.6178 81.4327 24.8734C82.0315 25.1291 82.6809 25.2569 83.3807 25.2569C84.0481 25.2569 84.6186 25.1377 85.0921 24.8983C85.5664 24.6586 86.0058 24.3308 86.4102 23.915C86.4192 23.9058 86.4329 23.9029 86.4449 23.9078C86.4568 23.9127 86.4647 23.9242 86.4647 23.9372V24.9915H89.876V13.7604H86.4647ZM84.179 16.3999C85.5312 16.3999 86.629 17.7388 86.629 19.388C86.629 21.0372 85.5312 22.3761 84.179 22.3761C82.8268 22.3761 81.7289 21.0372 81.7289 19.388C81.7289 17.7388 82.8268 16.3999 84.179 16.3999Z" fill="#2C2C2C"/>
<path d="M98.439 13.7601V14.7179C98.439 14.7307 98.4314 14.7422 98.4196 14.7471C98.4079 14.7521 98.3942 14.7495 98.3852 14.7406C98.0738 14.4366 97.6885 14.1526 97.2293 13.8886C96.772 13.6257 96.2255 13.4946 95.5899 13.4946C94.7808 13.4946 94.0611 13.6344 93.431 13.9142C92.8013 14.1939 92.265 14.5854 91.8219 15.0888C91.3785 15.5926 91.0401 16.1843 90.8067 16.864C90.5731 17.5446 90.4563 18.2934 90.4563 19.1102C90.4563 19.9433 90.5692 20.7083 90.7952 21.4052C91.0208 22.1009 91.3436 22.7008 91.7638 23.2047C92.1833 23.7078 92.6962 24.0992 93.3023 24.3787C93.9088 24.6585 94.6009 24.7982 95.3786 24.7982C96.0769 24.7982 96.6745 24.663 97.1712 24.3917C97.6691 24.1199 98.0893 23.8081 98.4315 23.4563C98.4405 23.447 98.4543 23.4441 98.4662 23.449C98.4782 23.4538 98.486 23.4655 98.486 23.4784V24.5403C98.486 25.4522 98.1879 26.148 97.5938 26.6284C97.0014 27.1074 96.2709 27.3474 95.402 27.3474C94.6932 27.3474 94.0709 27.2379 93.5353 27.0193C93.0148 26.8068 92.5764 26.5752 92.2199 26.3245L90.9117 28.7543C91.4542 29.148 92.1482 29.4868 92.9939 29.7713C93.8517 30.0599 94.8188 30.2041 95.8951 30.2041C96.7517 30.2041 97.5422 30.0601 98.2664 29.7719C98.9902 29.4839 99.6166 29.0761 100.146 28.5482C100.675 28.0201 101.091 27.3919 101.395 26.6639C101.699 25.9355 101.85 25.123 101.85 24.2265V13.7601H98.439ZM96.1775 16.3708C97.5288 16.3708 98.6259 17.6024 98.6259 19.1195C98.6259 20.6365 97.5288 21.8681 96.1775 21.8681C94.8261 21.8681 93.729 20.6365 93.729 19.1195C93.729 17.6024 94.8261 16.3708 96.1775 16.3708Z" fill="#2C2C2C"/>
<path d="M113.1 20.2854C113.114 20.1607 113.124 19.9979 113.132 19.7972C113.139 19.5804 113.143 19.4159 113.143 19.3036C113.143 18.5664 113.042 17.8454 112.839 17.1403C112.637 16.4363 112.326 15.8083 111.905 15.2563C111.485 14.7048 110.945 14.2574 110.284 13.9137C109.623 13.57 108.841 13.3984 107.939 13.3984C107.068 13.3984 106.293 13.5542 105.616 13.8661C104.94 14.1779 104.364 14.6017 103.889 15.1374C103.415 15.6734 103.053 16.2973 102.804 17.0093C102.555 17.722 102.43 18.4787 102.43 19.2794C102.43 20.1604 102.566 20.9733 102.839 21.7181C103.111 22.462 103.504 23.1018 104.018 23.6378C104.531 24.1737 105.154 24.5935 105.885 24.8974C106.617 25.2016 107.435 25.3535 108.338 25.3535C108.884 25.3535 109.382 25.3055 109.834 25.2094C110.286 25.1133 110.703 24.9891 111.085 24.8369C111.467 24.6847 111.81 24.5205 112.114 24.3442C112.409 24.1732 112.671 24.0022 112.9 23.8313L111.754 21.5693C111.354 21.82 110.924 22.0439 110.464 22.2409C109.991 22.4433 109.377 22.5451 108.62 22.5451C107.83 22.5451 107.17 22.3455 106.641 21.9475C106.111 21.5491 105.751 21.0086 105.561 20.3256C105.558 20.3161 105.56 20.3058 105.566 20.298C105.572 20.2901 105.581 20.2854 105.591 20.2854H113.1ZM105.582 18.1045C105.738 16.8553 106.693 15.8931 107.845 15.8931C108.998 15.8931 109.952 16.8553 110.109 18.1045H105.582Z" fill="#2C2C2C"/>
<path d="M162.132 20.2854C162.146 20.1607 162.156 19.9979 162.164 19.7972C162.172 19.5804 162.175 19.4159 162.175 19.3036C162.175 18.5664 162.074 17.8454 161.871 17.1403C161.669 16.4363 161.358 15.8083 160.938 15.2563C160.518 14.7048 159.977 14.2574 159.316 13.9137C158.655 13.57 157.874 13.3984 156.971 13.3984C156.1 13.3984 155.326 13.5542 154.649 13.8661C153.972 14.1779 153.396 14.6017 152.922 15.1374C152.447 15.6734 152.085 16.2973 151.836 17.0093C151.587 17.722 151.462 18.4787 151.462 19.2794C151.462 20.1604 151.598 20.9733 151.871 21.7181C152.143 22.462 152.536 23.1018 153.05 23.6378C153.563 24.1737 154.186 24.5935 154.917 24.8974C155.649 25.2016 156.467 25.3535 157.37 25.3535C157.916 25.3535 158.415 25.3055 158.867 25.2094C159.319 25.1133 159.736 24.9891 160.118 24.8369C160.499 24.6847 160.842 24.5205 161.146 24.3442C161.441 24.1732 161.703 24.0022 161.932 23.8313L160.786 21.5693C160.386 21.82 159.956 22.0439 159.496 22.2409C159.023 22.4433 158.409 22.5451 157.652 22.5451C156.862 22.5451 156.202 22.3455 155.673 21.9475C155.143 21.5491 154.783 21.0086 154.593 20.3256C154.59 20.3161 154.592 20.3058 154.598 20.298C154.604 20.2901 154.614 20.2854 154.624 20.2854H162.132ZM154.614 18.1045C154.77 16.8553 155.725 15.8931 156.877 15.8931C158.03 15.8931 158.985 16.8553 159.141 18.1045H154.614Z" fill="#2C2C2C"/>
<path d="M131.574 24.9915V17.1556C131.574 16.0229 131.237 15.1253 130.562 14.4632C129.887 13.8009 128.966 13.4707 127.802 13.4707C127.336 13.4707 126.917 13.5305 126.544 13.6502C126.171 13.77 125.837 13.9256 125.542 14.1172C125.247 14.3088 124.982 14.5285 124.749 14.776C124.516 15.0244 124.305 15.2768 124.118 15.5332C124.111 15.5424 124.1 15.5473 124.089 15.546C124.077 15.5447 124.068 15.5375 124.063 15.527C123.784 14.8737 123.346 14.3677 122.749 14.0092C122.151 13.6499 121.433 13.4707 120.594 13.4707C119.771 13.4707 119.092 13.6377 118.557 13.9727C118.02 14.3087 117.572 14.6925 117.214 15.1244C117.206 15.1348 117.191 15.1386 117.179 15.1341C117.166 15.1295 117.158 15.1176 117.158 15.1043V13.7604H113.747V24.9915H117.158V18.8443C117.174 18.0469 117.369 17.4371 117.741 17.014C118.115 16.5884 118.581 16.3757 119.138 16.3757C119.696 16.3757 120.138 16.5484 120.464 16.8924C120.79 17.2355 120.954 17.7251 120.954 18.3623V24.9915H124.366V18.9656C124.366 18.1197 124.557 17.4775 124.937 17.0383C125.319 16.5964 125.789 16.3757 126.346 16.3757C126.904 16.3757 127.346 16.5484 127.672 16.8924C127.998 17.2355 128.162 17.7251 128.162 18.3623V24.9915H131.574Z" fill="#2C2C2C"/>
<path d="M140.151 13.8214V14.6696C140.151 14.7064 140.13 14.7398 140.096 14.7546C140.062 14.7695 140.023 14.7632 139.996 14.7384C139.597 14.3756 139.155 14.0915 138.672 13.8864C138.19 13.6817 137.634 13.5801 137.006 13.5801C136.316 13.5801 135.675 13.7177 135.085 13.9937C134.494 14.2695 133.985 14.6598 133.555 15.1643C133.124 15.6709 132.785 16.2804 132.539 16.9927C132.292 17.7076 132.168 18.4938 132.168 19.3516C132.168 20.3057 132.292 21.1485 132.539 21.88C132.785 22.6074 133.123 23.2165 133.554 23.7067C133.983 24.1948 134.492 24.5649 135.082 24.8169C135.674 25.0695 136.315 25.1955 137.006 25.1955C137.663 25.1955 138.224 25.079 138.69 24.8435C139.158 24.6067 139.592 24.2827 139.992 23.8722C140.018 23.8451 140.058 23.8366 140.093 23.8509C140.128 23.8651 140.151 23.8991 140.151 23.937V24.9301H143.44V13.8214H140.151ZM137.804 16.3997C139.157 16.3997 140.254 17.7386 140.254 19.3878C140.254 21.0369 139.157 22.3759 137.804 22.3759C136.452 22.3759 135.354 21.0369 135.354 19.3878C135.354 17.7386 136.452 16.3997 137.804 16.3997Z" fill="#2C2C2C"/>
<path d="M147.632 10L144.437 10.5018V13.7286V16.5764V20.7273C144.437 22.1473 144.825 23.2607 145.608 24.0654C146.39 24.869 147.456 25.2681 148.805 25.2681C149.619 25.2681 150.318 25.1271 150.902 24.8426C151.471 24.5726 151.93 24.317 152.28 24.0752L151.23 21.8715C151.027 21.9851 150.795 22.0988 150.533 22.2124L150.53 22.2134C150.239 22.3299 149.891 22.389 149.486 22.389C148.961 22.389 148.518 22.2277 148.155 21.9056C147.811 21.586 147.632 21.05 147.632 20.293V16.5764C147.632 16.5251 147.674 16.4834 147.725 16.4834H151.53V13.8215H147.725C147.674 13.8215 147.632 13.7799 147.632 13.7286V10Z" fill="#2C2C2C"/>
<path fill-rule="evenodd" clip-rule="evenodd" d="M17 14.5318V18.8444C17 18.8444 20.6742 16.1994 23.1461 14.42C24.7236 13.2843 26.8105 13.2802 28.3921 14.4096L34.6064 18.8476V14.5467L30.4261 11.5614C27.6148 9.55369 23.9054 9.56085 21.1013 11.5794L17 14.5318Z" fill="#029D1A"/>
<path d="M27.1352 26.7929H24.4441C24.0408 26.7929 23.6357 26.7574 23.2398 26.688C22.8459 26.6187 22.4575 26.5146 22.0853 26.3787C21.7097 26.2417 21.347 26.0709 21.007 25.8716C20.6597 25.6676 20.3327 25.4314 20.0353 25.1694C19.7335 24.9036 19.4598 24.6095 19.2215 24.2947C18.9818 23.9779 18.7755 23.6379 18.6091 23.2838C18.4403 22.925 18.311 22.5494 18.2241 22.167C18.1356 21.7783 18.0911 21.3795 18.0911 20.9822V19.1321H21.7129V20.9822C21.7129 21.2417 21.7713 21.4974 21.8865 21.742C22.0098 22.0042 22.1923 22.2428 22.4291 22.451L22.4294 22.4513C22.6835 22.675 22.9852 22.8515 23.3262 22.976C23.4998 23.0392 23.682 23.0881 23.8674 23.1207C24.0564 23.1539 24.2504 23.1707 24.4438 23.1707H27.1349C27.5376 23.1707 27.9255 23.1024 28.2879 22.9674C28.4578 22.9041 28.6211 22.8261 28.773 22.7357C28.9198 22.6485 29.0571 22.5489 29.1809 22.4399C29.4187 22.2305 29.6028 21.992 29.7281 21.7311C29.8488 21.4797 29.9101 21.2145 29.9101 20.943V19.1321L33.532 19.1318V20.9428C33.532 21.3549 33.4847 21.7666 33.3917 22.1667C33.3016 22.5549 33.1675 22.9359 32.993 23.2989C32.8242 23.6504 32.616 23.9885 32.3746 24.3032C32.1392 24.6101 31.87 24.8976 31.5746 25.1576C31.2834 25.4142 30.9639 25.6465 30.6249 25.8481C30.2865 26.0495 29.9255 26.2223 29.5519 26.3613C29.1746 26.5017 28.7802 26.6096 28.38 26.6819C27.9727 26.7558 27.5536 26.7929 27.1352 26.7929Z" fill="#029D1A"/>
</g>
<defs>
<clipPath id="clip0_150_943">
<rect width="145.25" height="20.2604" fill="white" transform="translate(17 10)"/>
</clipPath>
</defs>
</svg>
