<svg width="41" height="40" viewBox="0 0 41 40" fill="none" xmlns="http://www.w3.org/2000/svg">
<path d="M31.3084 12.0164C31.1535 11.8602 30.9691 11.7362 30.766 11.6516C30.5629 11.567 30.3451 11.5234 30.1251 11.5234C29.9051 11.5234 29.6872 11.567 29.4841 11.6516C29.281 11.7362 29.0967 11.8602 28.9417 12.0164L16.5251 24.4498L11.3084 19.2164C11.1475 19.061 10.9576 18.9388 10.7495 18.8568C10.5415 18.7748 10.3193 18.7346 10.0956 18.7385C9.87198 18.7424 9.6513 18.7902 9.44617 18.8794C9.24104 18.9685 9.05548 19.0972 8.90008 19.2581C8.74468 19.419 8.62249 19.6089 8.54048 19.817C8.45848 20.0251 8.41826 20.2473 8.42213 20.4709C8.426 20.6945 8.47388 20.9152 8.56303 21.1203C8.65219 21.3255 8.78088 21.511 8.94175 21.6664L15.3417 28.0664C15.4967 28.2226 15.681 28.3466 15.8841 28.4313C16.0872 28.5159 16.3051 28.5594 16.5251 28.5594C16.7451 28.5594 16.9629 28.5159 17.166 28.4313C17.3691 28.3466 17.5535 28.2226 17.7084 28.0664L31.3084 14.4664C31.4776 14.3104 31.6126 14.1209 31.7049 13.9101C31.7973 13.6993 31.845 13.4716 31.845 13.2414C31.845 13.0113 31.7973 12.7836 31.7049 12.5728C31.6126 12.3619 31.4776 12.1725 31.3084 12.0164V12.0164Z" fill="#52575C"/>
</svg>
