<svg width="41" height="40" viewBox="0 0 41 40" fill="none" xmlns="http://www.w3.org/2000/svg">
<path d="M31.8084 12.0164C31.6535 11.8602 31.4691 11.7362 31.266 11.6516C31.0629 11.567 30.8451 11.5234 30.6251 11.5234C30.4051 11.5234 30.1872 11.567 29.9841 11.6516C29.781 11.7362 29.5967 11.8602 29.4417 12.0164L17.0251 24.4498L11.8084 19.2164C11.6475 19.061 11.4576 18.9388 11.2495 18.8568C11.0415 18.7748 10.8193 18.7346 10.5956 18.7385C10.372 18.7424 10.1513 18.7902 9.94617 18.8794C9.74104 18.9685 9.55548 19.0972 9.40008 19.2581C9.24468 19.419 9.12249 19.6089 9.04048 19.817C8.95848 20.0251 8.91826 20.2473 8.92213 20.4709C8.926 20.6945 8.97388 20.9152 9.06303 21.1203C9.15219 21.3255 9.28088 21.511 9.44175 21.6664L15.8417 28.0664C15.9967 28.2226 16.181 28.3466 16.3841 28.4313C16.5872 28.5159 16.8051 28.5594 17.0251 28.5594C17.2451 28.5594 17.4629 28.5159 17.666 28.4313C17.8691 28.3466 18.0535 28.2226 18.2084 28.0664L31.8084 14.4664C31.9776 14.3104 32.1126 14.1209 32.2049 13.9101C32.2973 13.6993 32.345 13.4716 32.345 13.2414C32.345 13.0113 32.2973 12.7836 32.2049 12.5728C32.1126 12.3619 31.9776 12.1725 31.8084 12.0164Z" fill="#0251FF"/>
</svg>
