<svg width="21" height="20" viewBox="0 0 21 20" fill="none" xmlns="http://www.w3.org/2000/svg">
<g id="u:linkedin-alt">
<path id="Vector" d="M15.0834 7.49925C14.3374 7.49894 13.6029 7.68347 12.9456 8.03636C12.8856 7.87838 12.779 7.74239 12.6399 7.64646C12.5008 7.55052 12.3357 7.49918 12.1668 7.49925H8.83343C8.72398 7.49919 8.61559 7.5207 8.51445 7.56256C8.41332 7.60442 8.32143 7.6658 8.24404 7.74319C8.16664 7.82059 8.10526 7.91248 8.0634 8.01361C8.02155 8.11474 8.00004 8.22313 8.0001 8.33259V18.3326C8.00003 18.442 8.02155 18.5504 8.0634 18.6516C8.10526 18.7527 8.16664 18.8446 8.24403 18.922C8.32143 18.9994 8.41332 19.0608 8.51445 19.1026C8.61559 19.1445 8.72398 19.166 8.83343 19.1659H12.1668C12.2762 19.166 12.3846 19.1445 12.4857 19.1026C12.5869 19.0608 12.6788 18.9994 12.7562 18.922C12.8336 18.8446 12.8949 18.7527 12.9368 18.6516C12.9787 18.5504 13.0002 18.442 13.0001 18.3326V13.7493C13.0001 13.5282 13.0879 13.3163 13.2442 13.16C13.4005 13.0037 13.6124 12.9159 13.8334 12.9159C14.0544 12.9159 14.2664 13.0037 14.4227 13.16C14.579 13.3163 14.6668 13.5282 14.6668 13.7493V18.3326C14.6667 18.442 14.6882 18.5504 14.7301 18.6516C14.7719 18.7527 14.8333 18.8446 14.9107 18.922C14.9881 18.9994 15.08 19.0608 15.1811 19.1026C15.2823 19.1445 15.3906 19.166 15.5001 19.1659H18.8334C18.9429 19.166 19.0513 19.1445 19.1524 19.1026C19.2535 19.0608 19.3454 18.9994 19.4228 18.922C19.5002 18.8446 19.5616 18.7527 19.6035 18.6516C19.6453 18.5504 19.6668 18.442 19.6668 18.3326V12.0826C19.6653 10.8675 19.1819 9.70256 18.3227 8.84335C17.4635 7.98413 16.2985 7.50076 15.0834 7.49925ZM18.0001 17.4993H16.3334V13.7493C16.3334 13.0862 16.07 12.4503 15.6012 11.9815C15.1324 11.5126 14.4965 11.2493 13.8334 11.2493C13.1704 11.2493 12.5345 11.5126 12.0657 11.9815C11.5968 12.4503 11.3334 13.0862 11.3334 13.7493V17.4993H9.66676V9.16592H11.3334V9.75186C11.3335 9.92453 11.3872 10.0929 11.4871 10.2337C11.587 10.3746 11.7282 10.4809 11.8911 10.5381C12.0541 10.5953 12.2307 10.6004 12.3967 10.5529C12.5627 10.5053 12.7098 10.4074 12.8178 10.2727C13.1918 9.79772 13.7048 9.45139 14.2851 9.28206C14.8654 9.11273 15.4841 9.12885 16.0549 9.32818C16.6256 9.5275 17.1198 9.90008 17.4686 10.3939C17.8173 10.8877 18.0031 11.4781 18.0001 12.0826V17.4993ZM6.33343 7.49925H3.0001C2.89065 7.49919 2.78225 7.5207 2.68112 7.56256C2.57999 7.60442 2.4881 7.6658 2.4107 7.74319C2.33331 7.82059 2.27193 7.91248 2.23007 8.01361C2.18821 8.11474 2.1667 8.22313 2.16676 8.33259V18.3326C2.1667 18.442 2.18821 18.5504 2.23007 18.6516C2.27193 18.7527 2.33331 18.8446 2.4107 18.922C2.4881 18.9994 2.57999 19.0608 2.68112 19.1026C2.78225 19.1445 2.89065 19.166 3.0001 19.1659H6.33343C6.44288 19.166 6.55128 19.1445 6.65241 19.1026C6.75354 19.0608 6.84543 18.9994 6.92283 18.922C7.00022 18.8446 7.0616 18.7527 7.10346 18.6516C7.14532 18.5504 7.16683 18.442 7.16676 18.3326V8.33259C7.16683 8.22313 7.14532 8.11474 7.10346 8.01361C7.0616 7.91248 7.00022 7.82059 6.92283 7.74319C6.84543 7.6658 6.75354 7.60442 6.65241 7.56256C6.55128 7.5207 6.44288 7.49919 6.33343 7.49925ZM5.5001 17.4993H3.83343V9.16592H5.5001V17.4993ZM4.67897 1.28509C4.31427 1.26326 3.94894 1.31583 3.6052 1.43962C3.26146 1.56341 2.94649 1.75583 2.67945 2.00516C2.4124 2.2545 2.19886 2.55555 2.05181 2.89C1.90477 3.22446 1.82728 3.58533 1.82408 3.95066C1.82087 4.316 1.89201 4.67817 2.03317 5.01516C2.17433 5.35214 2.38255 5.65689 2.64518 5.91087C2.90781 6.16486 3.21935 6.36277 3.56087 6.49257C3.90239 6.62237 4.26674 6.68135 4.63176 6.66592H4.65536C5.02103 6.68764 5.38728 6.63457 5.73174 6.50996C6.07621 6.38535 6.39164 6.19182 6.65878 5.94118C6.92592 5.69054 7.13915 5.38807 7.28544 5.05224C7.43173 4.71641 7.50801 4.35428 7.50961 3.98797C7.51122 3.62167 7.43812 3.25888 7.29478 2.92178C7.15144 2.58468 6.94088 2.28035 6.67595 2.02738C6.41102 1.7744 6.09729 1.57811 5.75393 1.45048C5.41058 1.32285 5.04481 1.26658 4.67896 1.28509H4.67897ZM4.65537 4.99925H4.63176C4.48765 5.01675 4.34147 5.00324 4.20301 4.95961C4.06455 4.91598 3.93702 4.84326 3.82897 4.74631C3.72092 4.64936 3.63485 4.53042 3.57653 4.39748C3.51821 4.26454 3.48898 4.12067 3.49082 3.97551C3.49082 3.35376 3.95713 2.95175 4.67897 2.95175C4.82455 2.93234 4.97261 2.94435 5.11315 2.98698C5.2537 3.02961 5.38348 3.10186 5.49375 3.19887C5.60402 3.29588 5.69223 3.4154 5.75242 3.54936C5.81262 3.68333 5.8434 3.82864 5.84271 3.97551C5.84271 4.59725 5.3764 4.99925 4.65537 4.99925Z" fill="#0251FF"/>
</g>
</svg>
