<svg width="41" height="40" viewBox="0 0 41 40" fill="none" xmlns="http://www.w3.org/2000/svg">
<path d="M20.8749 3.3335C17.5786 3.3335 14.3562 4.31098 11.6154 6.14234C8.8746 7.97369 6.73839 10.5767 5.47693 13.6221C4.21547 16.6675 3.88542 20.0187 4.5285 23.2517C5.17159 26.4847 6.75894 29.4544 9.08981 31.7853C11.4207 34.1162 14.3904 35.7035 17.6234 36.3466C20.8564 36.9897 24.2075 36.6596 27.253 35.3982C30.2984 34.1367 32.9014 32.0005 34.7327 29.2597C36.5641 26.5188 37.5416 23.2965 37.5416 20.0002C37.5416 17.8115 37.1105 15.6442 36.2729 13.6221C35.4353 11.6 34.2077 9.76269 32.66 8.21505C31.1124 6.66741 29.2751 5.43975 27.253 4.60217C25.2309 3.76459 23.0636 3.3335 20.8749 3.3335ZM20.8749 33.3335C18.2378 33.3335 15.66 32.5515 13.4673 31.0864C11.2747 29.6213 9.5657 27.539 8.55653 25.1026C7.54736 22.6663 7.28332 19.9854 7.79779 17.399C8.31226 14.8125 9.58214 12.4368 11.4468 10.5721C13.3115 8.70737 15.6873 7.4375 18.2737 6.92303C20.8601 6.40856 23.541 6.6726 25.9774 7.68177C28.4137 8.69094 30.4961 10.3999 31.9612 12.5926C33.4263 14.7852 34.2083 17.3631 34.2083 20.0002C34.2083 23.5364 32.8035 26.9278 30.303 29.4283C27.8025 31.9287 24.4111 33.3335 20.8749 33.3335ZM27.5416 18.3335H14.2083C13.7662 18.3335 13.3423 18.5091 13.0297 18.8217C12.7172 19.1342 12.5416 19.5581 12.5416 20.0002C12.5416 20.4422 12.7172 20.8661 13.0297 21.1787C13.3423 21.4912 13.7662 21.6668 14.2083 21.6668H27.5416C27.9836 21.6668 28.4075 21.4912 28.7201 21.1787C29.0327 20.8661 29.2083 20.4422 29.2083 20.0002C29.2083 19.5581 29.0327 19.1342 28.7201 18.8217C28.4075 18.5091 27.9836 18.3335 27.5416 18.3335Z" fill="#CECECE"/>
</svg>
