<svg width="41" height="40" viewBox="0 0 41 40" fill="none" xmlns="http://www.w3.org/2000/svg">
<path d="M26.3082 13.8166C26.1533 13.6603 25.9689 13.5364 25.7658 13.4517C25.5627 13.3671 25.3449 13.3236 25.1249 13.3236C24.9049 13.3236 24.687 13.3671 24.4839 13.4517C24.2808 13.5364 24.0965 13.6603 23.9416 13.8166L20.1249 17.6499L16.3082 13.8166C15.9944 13.5027 15.5687 13.3264 15.1249 13.3264C14.6811 13.3264 14.2554 13.5027 13.9416 13.8166C13.6277 14.1304 13.4514 14.5561 13.4514 14.9999C13.4514 15.4437 13.6277 15.8694 13.9416 16.1832L17.7749 19.9999L13.9416 23.8166C13.7853 23.9715 13.6614 24.1558 13.5767 24.3589C13.4921 24.562 13.4486 24.7799 13.4486 24.9999C13.4486 25.2199 13.4921 25.4377 13.5767 25.6408C13.6614 25.8439 13.7853 26.0283 13.9416 26.1832C14.0965 26.3394 14.2808 26.4634 14.4839 26.548C14.687 26.6327 14.9049 26.6762 15.1249 26.6762C15.3449 26.6762 15.5627 26.6327 15.7658 26.548C15.9689 26.4634 16.1533 26.3394 16.3082 26.1832L20.1249 22.3499L23.9416 26.1832C24.0965 26.3394 24.2808 26.4634 24.4839 26.548C24.687 26.6327 24.9049 26.6762 25.1249 26.6762C25.3449 26.6762 25.5627 26.6327 25.7658 26.548C25.9689 26.4634 26.1533 26.3394 26.3082 26.1832C26.4644 26.0283 26.5884 25.8439 26.673 25.6408C26.7577 25.4377 26.8012 25.2199 26.8012 24.9999C26.8012 24.7799 26.7577 24.562 26.673 24.3589C26.5884 24.1558 26.4644 23.9715 26.3082 23.8166L22.4749 19.9999L26.3082 16.1832C26.4644 16.0283 26.5884 15.8439 26.673 15.6408C26.7577 15.4377 26.8012 15.2199 26.8012 14.9999C26.8012 14.7799 26.7577 14.562 26.673 14.3589C26.5884 14.1558 26.4644 13.9715 26.3082 13.8166ZM31.9082 8.21655C30.3708 6.62472 28.5317 5.35501 26.4983 4.48153C24.4649 3.60805 22.2779 3.14828 20.0649 3.12905C17.8519 3.10982 15.6573 3.53151 13.609 4.36953C11.5607 5.20754 9.69985 6.44509 8.13497 8.00997C6.57009 9.57485 5.33254 11.4357 4.49453 13.484C3.65651 15.5323 3.23482 17.7269 3.25405 19.9399C3.27328 22.1529 3.73305 24.3399 4.60653 26.3733C5.48001 28.4067 6.74972 30.2458 8.34155 31.7832C9.879 33.3751 11.7181 34.6448 13.7515 35.5182C15.7849 36.3917 17.9719 36.8515 20.1849 36.8707C22.3979 36.89 24.5925 36.4683 26.6408 35.6303C28.6891 34.7922 30.5499 33.5547 32.1148 31.9898C33.6797 30.4249 34.9172 28.5641 35.7553 26.5158C36.5933 24.4675 37.015 22.2729 36.9957 20.0599C36.9765 17.8469 36.5167 15.6599 35.6432 13.6265C34.7698 11.5931 33.5001 9.754 31.9082 8.21655ZM29.5582 29.4332C27.3783 31.6156 24.5091 32.9746 21.4395 33.2787C18.37 33.5829 15.2899 32.8133 12.7241 31.1012C10.1583 29.389 8.26549 26.8402 7.36818 23.889C6.47087 20.9378 6.62456 17.7668 7.80308 14.9162C8.98159 12.0656 11.112 9.7118 13.8314 8.25582C16.5507 6.79985 19.6908 6.33177 22.7166 6.93134C25.7423 7.53092 28.4666 9.16104 30.4253 11.544C32.3839 13.9269 33.4558 16.9153 33.4582 19.9999C33.4642 21.752 33.1225 23.488 32.4531 25.1072C31.7837 26.7264 30.7997 28.1968 29.5582 29.4332Z" fill="#CECECE"/>
</svg>
